<svg width="65" height="65" viewBox="0 0 65 65" fill="none" xmlns="http://www.w3.org/2000/svg">
<path fill-rule="evenodd" clip-rule="evenodd" d="M26.0669 16.1914C26.0669 12.8087 28.8092 10.0664 32.1919 10.0664C35.5746 10.0664 38.3169 12.8087 38.3169 16.1914L38.3169 16.9831H26.0669L26.0669 16.1914ZM22.3169 20.7331V24.1914C22.3169 25.2269 23.1564 26.0664 24.1919 26.0664C25.2274 26.0664 26.0669 25.2269 26.0669 24.1914V20.7331H38.3169L38.3169 24.1914C38.3169 25.2269 39.1564 26.0664 40.1919 26.0664C41.2274 26.0664 42.0669 25.2269 42.0669 24.1914L42.0669 20.7331H46.4556L48.8338 51.6498L15.55 51.6498L17.9282 20.7331H22.3169ZM22.3169 16.9831L22.3169 16.1914C22.3169 10.7376 26.7381 6.31641 32.1919 6.31641C37.6457 6.31641 42.0669 10.7376 42.0669 16.1914L42.0669 16.9831L48.1919 16.9831C49.1717 16.9831 49.9863 17.7374 50.0614 18.7143L52.7281 53.381C52.7681 53.9017 52.5892 54.4155 52.2343 54.7987C51.8795 55.1819 51.3809 55.3998 50.8586 55.3998H13.5253C13.003 55.3998 12.5044 55.1819 12.1495 54.7987C11.7947 54.4155 11.6157 53.9017 11.6558 53.381L14.3225 18.7143C14.3976 17.7374 15.2122 16.9831 16.1919 16.9831L22.3169 16.9831Z" fill="black"/>
</svg>
