<svg width="80" height="79" viewBox="0 0 80 79" fill="none" xmlns="http://www.w3.org/2000/svg">
<path fill-rule="evenodd" clip-rule="evenodd" d="M30.0722 25.58C29.1967 22.3125 31.1357 18.9539 34.4032 18.0784C37.6707 17.2029 41.0293 19.1419 41.9048 22.4094L42.1097 23.1741L30.2771 26.3446L30.0722 25.58ZM27.6254 30.9374L28.5205 34.2779C28.7885 35.2782 29.8167 35.8718 30.8169 35.6038C31.8172 35.3357 32.4108 34.3076 32.1427 33.3074L31.2476 29.9669L43.0802 26.7963L43.9753 30.1368C44.2433 31.1371 45.2715 31.7307 46.2717 31.4627C47.272 31.1946 47.8656 30.1665 47.5975 29.1663L46.7025 25.8258L50.9418 24.6898L61.2408 53.9375L29.0911 62.552L23.3864 32.0733L27.6254 30.9374ZM26.6549 27.3152L26.45 26.5505C25.0384 21.2825 28.1647 15.8677 33.4326 14.4562C38.7006 13.0446 44.1154 16.1709 45.527 21.4389L45.7319 22.2035L51.6483 20.6182C52.5947 20.3646 53.5768 20.8824 53.9022 21.8066L65.4504 54.6018C65.6238 55.0944 65.584 55.6371 65.3404 56.0991C65.0968 56.5611 64.6716 56.9005 64.1671 57.0357L28.1059 66.6983C27.6014 66.8334 27.0634 66.7521 26.6215 66.4738C26.1795 66.1955 25.8737 65.7455 25.7776 65.2321L19.381 31.0565C19.2008 30.0935 19.7923 29.154 20.7387 28.9004L26.6549 27.3152Z" fill="black"/>
</svg>
